<?xml version="1.0" standalone="no"?>
<!DOCTYPE svg PUBLIC "-//W3C//DTD SVG 20010904//EN"
 "http://www.w3.org/TR/2001/REC-SVG-20010904/DTD/svg10.dtd">
<svg version="1.0" xmlns="http://www.w3.org/2000/svg"
 width="374.000000pt" height="374.000000pt" viewBox="0 0 374.000000 374.000000"
 preserveAspectRatio="xMidYMid meet">
<metadata>
Created by potrace 1.11, written by Peter Selinger 2001-2013
</metadata>
<g transform="translate(0.000000,374.000000) scale(0.100000,-0.100000)"
fill="#000000" stroke="none">
<path d="M0 1870 l0 -1870 1870 0 1870 0 0 1870 0 1870 -1870 0 -1870 0 0
-1870z m2301 1089 c57 -32 89 -80 89 -135 0 -34 -5 -47 -26 -63 -36 -28 -79
-27 -109 4 -44 43 -25 118 35 137 32 10 -49 38 -109 38 -53 0 -63 -3 -90 -30
-37 -37 -65 -112 -80 -210 -9 -61 -41 -416 -41 -455 0 -5 20 -18 44 -28 57
-24 116 -75 154 -134 32 -52 62 -139 62 -185 l0 -28 40 21 c22 12 58 23 81 26
36 5 41 4 37 -13 -1 -10 -23 -33 -48 -52 -54 -41 -58 -51 -59 -121 -2 -103 54
-176 179 -235 63 -30 70 -31 195 -31 112 1 138 4 189 24 158 63 237 225 175
361 -34 76 -104 131 -276 217 -174 86 -235 134 -269 208 -30 62 -30 118 -3
192 46 124 229 262 409 309 181 47 408 -4 455 -102 22 -47 16 -134 -11 -172
-22 -30 -127 -87 -143 -78 -6 4 -8 32 -5 69 7 82 -15 118 -94 155 -52 25 -68
27 -177 27 -127 0 -158 -9 -213 -59 -63 -56 -87 -164 -54 -238 33 -75 91 -120
261 -204 136 -67 165 -86 222 -143 76 -76 95 -125 87 -219 -8 -88 -41 -147
-134 -239 -69 -69 -98 -89 -185 -132 -130 -63 -243 -91 -369 -91 -105 0 -169
14 -245 52 -64 33 -140 114 -155 166 l-13 40 -42 -30 c-23 -16 -71 -40 -106
-52 l-64 -22 -17 -139 c-35 -286 -83 -422 -182 -512 -59 -54 -112 -75 -188
-75 -94 1 -171 42 -202 105 -24 52 -20 84 14 119 26 25 36 29 63 24 41 -8 65
-32 73 -74 6 -28 2 -37 -29 -66 l-36 -34 32 -13 c50 -22 140 -18 174 7 35 26
71 89 89 157 16 59 40 262 49 418 l7 106 -55 27 c-63 31 -134 103 -165 169
-67 142 -38 309 72 420 54 54 87 73 166 98 l55 17 26 178 c14 99 30 196 34
216 l7 37 -63 -27 c-62 -26 -70 -27 -296 -30 l-233 -4 -9 -36 c-5 -20 -60
-235 -121 -477 -117 -462 -127 -498 -191 -662 -45 -113 -67 -139 -157 -181
-78 -35 -82 -23 -34 95 59 146 70 184 207 728 74 293 134 508 143 518 16 18 9
19 -218 15 -162 -2 -242 -7 -257 -15 -25 -15 -73 -107 -73 -140 0 -32 -38 -69
-103 -98 -72 -34 -87 -33 -87 8 0 89 115 221 256 294 140 73 141 73 687 73
l485 0 57 34 c36 22 67 51 85 79 32 51 85 96 132 114 51 20 158 10 209 -18z"/>
<path d="M1744 2151 c-23 -11 -60 -35 -82 -56 -148 -133 -114 -380 66 -474 19
-10 22 -9 22 6 0 10 11 124 25 253 27 253 29 290 18 290 -5 0 -27 -9 -49 -19z"/>
<path d="M1937 1879 c-15 -150 -25 -274 -23 -277 9 -9 51 7 98 37 59 38 104
99 125 170 32 112 -17 246 -114 311 -26 16 -49 30 -53 30 -3 0 -18 -122 -33
-271z"/>
</g>
</svg>
